<mxfile host="app.diagrams.net" modified="2023-12-06T06:46:05.063Z" agent="Mozilla/5.0 (Windows NT 10.0; Win64; x64) AppleWebKit/537.36 (KHTML, like Gecko) Chrome/118.0.0.0 Safari/537.36 OPR/104.0.0.0 (Edition Yx GX)" etag="FBXEr1o0OMlj3T3TugTn" version="22.1.5" type="github">
  <diagram name="Страница — 1" id="X_rwKbWugENcgHZTEO5S">
    <mxGraphModel dx="42" dy="2622" grid="1" gridSize="10" guides="1" tooltips="1" connect="1" arrows="1" fold="1" page="1" pageScale="1" pageWidth="827" pageHeight="1169" math="0" shadow="0">
      <root>
        <mxCell id="0" />
        <mxCell id="1" parent="0" />
        <mxCell id="qOPyBxMy7SwVEEUV9Sr_-1" value="" style="edgeStyle=orthogonalEdgeStyle;rounded=0;orthogonalLoop=1;jettySize=auto;html=1;" edge="1" parent="1" source="qOPyBxMy7SwVEEUV9Sr_-2">
          <mxGeometry relative="1" as="geometry">
            <mxPoint x="3406.18" y="-382" as="targetPoint" />
          </mxGeometry>
        </mxCell>
        <mxCell id="qOPyBxMy7SwVEEUV9Sr_-2" value="&lt;p style=&quot;line-height: 110%;&quot;&gt;&lt;span style=&quot;font-size: 18px;&quot;&gt;quick&lt;/span&gt;&lt;/p&gt;" style="ellipse;whiteSpace=wrap;html=1;" vertex="1" parent="1">
          <mxGeometry x="3351.18" y="-482" width="110" height="60" as="geometry" />
        </mxCell>
        <mxCell id="qOPyBxMy7SwVEEUV9Sr_-3" style="edgeStyle=orthogonalEdgeStyle;rounded=0;orthogonalLoop=1;jettySize=auto;html=1;" edge="1" parent="1" source="qOPyBxMy7SwVEEUV9Sr_-4">
          <mxGeometry relative="1" as="geometry">
            <mxPoint x="3405" y="-250" as="targetPoint" />
          </mxGeometry>
        </mxCell>
        <mxCell id="qOPyBxMy7SwVEEUV9Sr_-4" value="&lt;span style=&quot;font-size: 25px;&quot;&gt;Ввод &lt;br&gt;arr, L, R, f, d&lt;br&gt;&lt;/span&gt;" style="shape=parallelogram;perimeter=parallelogramPerimeter;whiteSpace=wrap;html=1;fixedSize=1;" vertex="1" parent="1">
          <mxGeometry x="3320" y="-381" width="170" height="60" as="geometry" />
        </mxCell>
        <mxCell id="qOPyBxMy7SwVEEUV9Sr_-5" style="edgeStyle=orthogonalEdgeStyle;rounded=0;orthogonalLoop=1;jettySize=auto;html=1;exitX=0.5;exitY=1;exitDx=0;exitDy=0;" edge="1" parent="1" source="qOPyBxMy7SwVEEUV9Sr_-6">
          <mxGeometry relative="1" as="geometry">
            <mxPoint x="3404.6666666666665" y="-130" as="targetPoint" />
          </mxGeometry>
        </mxCell>
        <mxCell id="qOPyBxMy7SwVEEUV9Sr_-6" value="i = L, j = R" style="rounded=0;whiteSpace=wrap;html=1;fontSize=20;" vertex="1" parent="1">
          <mxGeometry x="3293" y="-250.00000000000006" width="224" height="51" as="geometry" />
        </mxCell>
        <mxCell id="qOPyBxMy7SwVEEUV9Sr_-7" style="edgeStyle=orthogonalEdgeStyle;rounded=0;orthogonalLoop=1;jettySize=auto;html=1;exitX=0.5;exitY=1;exitDx=0;exitDy=0;entryX=0.5;entryY=0;entryDx=0;entryDy=0;" edge="1" parent="1" source="qOPyBxMy7SwVEEUV9Sr_-8" target="qOPyBxMy7SwVEEUV9Sr_-59">
          <mxGeometry relative="1" as="geometry">
            <mxPoint x="3404.6666666666665" y="-40" as="targetPoint" />
          </mxGeometry>
        </mxCell>
        <mxCell id="qOPyBxMy7SwVEEUV9Sr_-8" value="x = arr[(L + R) / 2]" style="rounded=0;whiteSpace=wrap;html=1;fontSize=20;" vertex="1" parent="1">
          <mxGeometry x="3293" y="-130.00000000000006" width="224" height="51" as="geometry" />
        </mxCell>
        <mxCell id="qOPyBxMy7SwVEEUV9Sr_-9" style="edgeStyle=orthogonalEdgeStyle;rounded=0;orthogonalLoop=1;jettySize=auto;html=1;exitX=1;exitY=0.5;exitDx=0;exitDy=0;" edge="1" parent="1" source="qOPyBxMy7SwVEEUV9Sr_-11">
          <mxGeometry relative="1" as="geometry">
            <mxPoint x="3610" y="192" as="targetPoint" />
          </mxGeometry>
        </mxCell>
        <mxCell id="qOPyBxMy7SwVEEUV9Sr_-10" style="edgeStyle=orthogonalEdgeStyle;rounded=0;orthogonalLoop=1;jettySize=auto;html=1;exitX=0;exitY=0.5;exitDx=0;exitDy=0;entryX=0.5;entryY=0;entryDx=0;entryDy=0;" edge="1" parent="1" source="qOPyBxMy7SwVEEUV9Sr_-11" target="qOPyBxMy7SwVEEUV9Sr_-61">
          <mxGeometry relative="1" as="geometry">
            <mxPoint x="3260" y="242" as="targetPoint" />
            <Array as="points">
              <mxPoint x="3300" y="142" />
              <mxPoint x="3300" y="233" />
              <mxPoint x="3405" y="233" />
            </Array>
          </mxGeometry>
        </mxCell>
        <mxCell id="qOPyBxMy7SwVEEUV9Sr_-11" value="&lt;span style=&quot;font-size: 20px;&quot;&gt;cmp == d&lt;/span&gt;" style="rhombus;whiteSpace=wrap;html=1;" vertex="1" parent="1">
          <mxGeometry x="3338.29" y="102" width="133.41" height="80" as="geometry" />
        </mxCell>
        <mxCell id="qOPyBxMy7SwVEEUV9Sr_-12" style="edgeStyle=orthogonalEdgeStyle;rounded=0;orthogonalLoop=1;jettySize=auto;html=1;exitX=0.5;exitY=1;exitDx=0;exitDy=0;" edge="1" parent="1" source="qOPyBxMy7SwVEEUV9Sr_-13">
          <mxGeometry relative="1" as="geometry">
            <mxPoint x="3406" y="-20" as="targetPoint" />
            <mxPoint x="3605.0000000000005" y="242" as="sourcePoint" />
            <Array as="points">
              <mxPoint x="3610" y="301" />
              <mxPoint x="3815" y="301" />
              <mxPoint x="3815" y="-20" />
              <mxPoint x="3406" y="-20" />
            </Array>
          </mxGeometry>
        </mxCell>
        <mxCell id="qOPyBxMy7SwVEEUV9Sr_-13" value="i = i + 1" style="rounded=0;whiteSpace=wrap;html=1;fontSize=20;" vertex="1" parent="1">
          <mxGeometry x="3498" y="191.99999999999994" width="224" height="51" as="geometry" />
        </mxCell>
        <mxCell id="qOPyBxMy7SwVEEUV9Sr_-14" value="&lt;font style=&quot;font-size: 23px;&quot;&gt;Да&lt;/font&gt;" style="edgeLabel;html=1;align=center;verticalAlign=middle;resizable=0;points=[];" vertex="1" connectable="0" parent="1">
          <mxGeometry x="3540.0014285714287" y="138.00000000000023" as="geometry" />
        </mxCell>
        <mxCell id="qOPyBxMy7SwVEEUV9Sr_-15" style="edgeStyle=orthogonalEdgeStyle;rounded=0;orthogonalLoop=1;jettySize=auto;html=1;exitX=1;exitY=0.5;exitDx=0;exitDy=0;entryX=0.5;entryY=0;entryDx=0;entryDy=0;" edge="1" parent="1" source="qOPyBxMy7SwVEEUV9Sr_-17" target="qOPyBxMy7SwVEEUV9Sr_-19">
          <mxGeometry relative="1" as="geometry">
            <mxPoint x="3580" y="530.0000000000002" as="targetPoint" />
          </mxGeometry>
        </mxCell>
        <mxCell id="qOPyBxMy7SwVEEUV9Sr_-16" style="edgeStyle=orthogonalEdgeStyle;rounded=0;orthogonalLoop=1;jettySize=auto;html=1;exitX=0;exitY=0.5;exitDx=0;exitDy=0;entryX=0.5;entryY=0;entryDx=0;entryDy=0;" edge="1" parent="1" source="qOPyBxMy7SwVEEUV9Sr_-17" target="qOPyBxMy7SwVEEUV9Sr_-23">
          <mxGeometry relative="1" as="geometry">
            <mxPoint x="3400" y="690" as="targetPoint" />
          </mxGeometry>
        </mxCell>
        <mxCell id="qOPyBxMy7SwVEEUV9Sr_-17" value="&lt;span style=&quot;font-size: 20px;&quot;&gt;cmp == d&lt;/span&gt;" style="rhombus;whiteSpace=wrap;html=1;" vertex="1" parent="1">
          <mxGeometry x="3338.28" y="431" width="133.41" height="80" as="geometry" />
        </mxCell>
        <mxCell id="qOPyBxMy7SwVEEUV9Sr_-18" style="edgeStyle=orthogonalEdgeStyle;rounded=0;orthogonalLoop=1;jettySize=auto;html=1;exitX=0.5;exitY=1;exitDx=0;exitDy=0;" edge="1" parent="1">
          <mxGeometry relative="1" as="geometry">
            <mxPoint x="3406" y="332" as="targetPoint" />
            <mxPoint x="3606" y="563.5" as="sourcePoint" />
            <Array as="points">
              <mxPoint x="3606" y="612" />
              <mxPoint x="3752" y="612" />
              <mxPoint x="3752" y="332" />
            </Array>
          </mxGeometry>
        </mxCell>
        <mxCell id="qOPyBxMy7SwVEEUV9Sr_-19" value="j = j - 1" style="rounded=0;whiteSpace=wrap;html=1;fontSize=20;" vertex="1" parent="1">
          <mxGeometry x="3498" y="520.5" width="224" height="51" as="geometry" />
        </mxCell>
        <mxCell id="qOPyBxMy7SwVEEUV9Sr_-20" value="&lt;font style=&quot;font-size: 23px;&quot;&gt;Да&lt;/font&gt;" style="edgeLabel;html=1;align=center;verticalAlign=middle;resizable=0;points=[];" vertex="1" connectable="0" parent="1">
          <mxGeometry x="3540.0014285714287" y="470.0000000000002" as="geometry" />
        </mxCell>
        <mxCell id="qOPyBxMy7SwVEEUV9Sr_-21" style="edgeStyle=orthogonalEdgeStyle;rounded=0;orthogonalLoop=1;jettySize=auto;html=1;exitX=0;exitY=0.5;exitDx=0;exitDy=0;entryX=0.5;entryY=0;entryDx=0;entryDy=0;" edge="1" parent="1" source="qOPyBxMy7SwVEEUV9Sr_-23" target="qOPyBxMy7SwVEEUV9Sr_-25">
          <mxGeometry relative="1" as="geometry">
            <mxPoint x="3410" y="880" as="targetPoint" />
          </mxGeometry>
        </mxCell>
        <mxCell id="qOPyBxMy7SwVEEUV9Sr_-22" style="edgeStyle=orthogonalEdgeStyle;rounded=0;orthogonalLoop=1;jettySize=auto;html=1;exitX=1;exitY=0.5;exitDx=0;exitDy=0;entryX=0.5;entryY=0;entryDx=0;entryDy=0;" edge="1" parent="1" source="qOPyBxMy7SwVEEUV9Sr_-23" target="qOPyBxMy7SwVEEUV9Sr_-57">
          <mxGeometry relative="1" as="geometry">
            <mxPoint x="3560" y="760" as="targetPoint" />
          </mxGeometry>
        </mxCell>
        <mxCell id="qOPyBxMy7SwVEEUV9Sr_-23" value="&lt;span style=&quot;font-size: 20px;&quot;&gt;i &amp;lt;= j&lt;/span&gt;" style="rhombus;whiteSpace=wrap;html=1;" vertex="1" parent="1">
          <mxGeometry x="3339.4700000000003" y="691.95" width="133.41" height="80" as="geometry" />
        </mxCell>
        <mxCell id="qOPyBxMy7SwVEEUV9Sr_-24" style="edgeStyle=orthogonalEdgeStyle;rounded=0;orthogonalLoop=1;jettySize=auto;html=1;exitX=0;exitY=0.5;exitDx=0;exitDy=0;" edge="1" parent="1" source="qOPyBxMy7SwVEEUV9Sr_-25">
          <mxGeometry relative="1" as="geometry">
            <mxPoint x="3403" y="-20" as="targetPoint" />
            <mxPoint x="3342.4700000000003" y="841" as="sourcePoint" />
            <Array as="points">
              <mxPoint x="3173" y="920" />
              <mxPoint x="3173" y="-20" />
            </Array>
          </mxGeometry>
        </mxCell>
        <mxCell id="qOPyBxMy7SwVEEUV9Sr_-25" value="&lt;span style=&quot;font-size: 20px;&quot;&gt;i &amp;gt; j&lt;/span&gt;" style="rhombus;whiteSpace=wrap;html=1;" vertex="1" parent="1">
          <mxGeometry x="3339.4700000000003" y="880" width="133.41" height="80" as="geometry" />
        </mxCell>
        <mxCell id="qOPyBxMy7SwVEEUV9Sr_-26" style="edgeStyle=orthogonalEdgeStyle;rounded=0;orthogonalLoop=1;jettySize=auto;html=1;exitX=1;exitY=0.5;exitDx=0;exitDy=0;entryX=0;entryY=0.5;entryDx=0;entryDy=0;" edge="1" parent="1" target="qOPyBxMy7SwVEEUV9Sr_-27">
          <mxGeometry relative="1" as="geometry">
            <mxPoint x="3473" y="920.05" as="sourcePoint" />
          </mxGeometry>
        </mxCell>
        <mxCell id="qOPyBxMy7SwVEEUV9Sr_-27" value="" style="ellipse;whiteSpace=wrap;html=1;aspect=fixed;" vertex="1" parent="1">
          <mxGeometry x="3517" y="895" width="50" height="50" as="geometry" />
        </mxCell>
        <mxCell id="qOPyBxMy7SwVEEUV9Sr_-28" style="edgeStyle=orthogonalEdgeStyle;rounded=0;orthogonalLoop=1;jettySize=auto;html=1;exitX=0.5;exitY=1;exitDx=0;exitDy=0;entryX=0.5;entryY=0;entryDx=0;entryDy=0;" edge="1" parent="1" source="qOPyBxMy7SwVEEUV9Sr_-29" target="qOPyBxMy7SwVEEUV9Sr_-32">
          <mxGeometry relative="1" as="geometry">
            <mxPoint x="4192.181818181818" y="-370" as="targetPoint" />
          </mxGeometry>
        </mxCell>
        <mxCell id="qOPyBxMy7SwVEEUV9Sr_-29" value="" style="ellipse;whiteSpace=wrap;html=1;aspect=fixed;" vertex="1" parent="1">
          <mxGeometry x="4168" y="-482.00000000000006" width="50" height="50" as="geometry" />
        </mxCell>
        <mxCell id="qOPyBxMy7SwVEEUV9Sr_-30" style="edgeStyle=orthogonalEdgeStyle;rounded=0;orthogonalLoop=1;jettySize=auto;html=1;exitX=0;exitY=0.5;exitDx=0;exitDy=0;" edge="1" parent="1" source="qOPyBxMy7SwVEEUV9Sr_-32">
          <mxGeometry relative="1" as="geometry">
            <mxPoint x="4048" y="-170" as="targetPoint" />
          </mxGeometry>
        </mxCell>
        <mxCell id="qOPyBxMy7SwVEEUV9Sr_-31" style="edgeStyle=orthogonalEdgeStyle;rounded=0;orthogonalLoop=1;jettySize=auto;html=1;exitX=1;exitY=0.5;exitDx=0;exitDy=0;entryX=0.5;entryY=0;entryDx=0;entryDy=0;" edge="1" parent="1" source="qOPyBxMy7SwVEEUV9Sr_-32" target="qOPyBxMy7SwVEEUV9Sr_-37">
          <mxGeometry relative="1" as="geometry">
            <mxPoint x="4308" y="-280" as="targetPoint" />
            <Array as="points">
              <mxPoint x="4348" y="-341" />
              <mxPoint x="4348" y="-250" />
            </Array>
          </mxGeometry>
        </mxCell>
        <mxCell id="qOPyBxMy7SwVEEUV9Sr_-32" value="&lt;span style=&quot;font-size: 20px;&quot;&gt;L &amp;lt; i&lt;/span&gt;" style="rhombus;whiteSpace=wrap;html=1;" vertex="1" parent="1">
          <mxGeometry x="4126.3" y="-381" width="133.41" height="80" as="geometry" />
        </mxCell>
        <mxCell id="qOPyBxMy7SwVEEUV9Sr_-33" style="edgeStyle=orthogonalEdgeStyle;rounded=0;orthogonalLoop=1;jettySize=auto;html=1;exitX=1;exitY=0.5;exitDx=0;exitDy=0;" edge="1" parent="1" source="qOPyBxMy7SwVEEUV9Sr_-35">
          <mxGeometry relative="1" as="geometry">
            <mxPoint x="4198" y="-80" as="targetPoint" />
          </mxGeometry>
        </mxCell>
        <mxCell id="qOPyBxMy7SwVEEUV9Sr_-34" style="edgeStyle=orthogonalEdgeStyle;rounded=0;orthogonalLoop=1;jettySize=auto;html=1;exitX=0;exitY=0.5;exitDx=0;exitDy=0;endArrow=none;endFill=0;" edge="1" parent="1" source="qOPyBxMy7SwVEEUV9Sr_-35">
          <mxGeometry relative="1" as="geometry">
            <mxPoint x="4198" y="70" as="targetPoint" />
            <Array as="points">
              <mxPoint x="3960" y="-130" />
              <mxPoint x="3960" y="30" />
              <mxPoint x="4198" y="30" />
            </Array>
          </mxGeometry>
        </mxCell>
        <mxCell id="qOPyBxMy7SwVEEUV9Sr_-35" value="&lt;span style=&quot;font-size: 20px;&quot;&gt;i &amp;lt; R&lt;/span&gt;" style="rhombus;whiteSpace=wrap;html=1;" vertex="1" parent="1">
          <mxGeometry x="3980" y="-170.5" width="133.41" height="80" as="geometry" />
        </mxCell>
        <mxCell id="qOPyBxMy7SwVEEUV9Sr_-36" style="edgeStyle=orthogonalEdgeStyle;rounded=0;orthogonalLoop=1;jettySize=auto;html=1;exitX=0.5;exitY=1;exitDx=0;exitDy=0;entryX=0.5;entryY=0;entryDx=0;entryDy=0;" edge="1" parent="1" source="qOPyBxMy7SwVEEUV9Sr_-37">
          <mxGeometry relative="1" as="geometry">
            <mxPoint x="4198" y="76" as="targetPoint" />
            <Array as="points">
              <mxPoint x="4349" y="30" />
              <mxPoint x="4198" y="30" />
            </Array>
          </mxGeometry>
        </mxCell>
        <mxCell id="qOPyBxMy7SwVEEUV9Sr_-37" value="&lt;span style=&quot;font-size: 23px;&quot;&gt;quick(arr, L, j, f, d)&lt;/span&gt;" style="rounded=0;whiteSpace=wrap;html=1;fontSize=20;" vertex="1" parent="1">
          <mxGeometry x="4237" y="-250.00000000000006" width="224" height="51" as="geometry" />
        </mxCell>
        <mxCell id="qOPyBxMy7SwVEEUV9Sr_-38" style="edgeStyle=orthogonalEdgeStyle;rounded=0;orthogonalLoop=1;jettySize=auto;html=1;exitX=0.5;exitY=1;exitDx=0;exitDy=0;endArrow=none;endFill=0;" edge="1" parent="1" source="qOPyBxMy7SwVEEUV9Sr_-39">
          <mxGeometry relative="1" as="geometry">
            <mxPoint x="4198" y="70" as="targetPoint" />
          </mxGeometry>
        </mxCell>
        <mxCell id="qOPyBxMy7SwVEEUV9Sr_-39" value="&lt;span style=&quot;font-size: 23px;&quot;&gt;quick(arr, i, R, f, d)&lt;/span&gt;" style="rounded=0;whiteSpace=wrap;html=1;fontSize=20;" vertex="1" parent="1">
          <mxGeometry x="4086" y="-79.00000000000006" width="224" height="51" as="geometry" />
        </mxCell>
        <mxCell id="qOPyBxMy7SwVEEUV9Sr_-40" value="&lt;font style=&quot;font-size: 23px;&quot;&gt;Да&lt;/font&gt;" style="edgeLabel;html=1;align=center;verticalAlign=middle;resizable=0;points=[];" vertex="1" connectable="0" parent="1">
          <mxGeometry x="4289.001428571429" y="-343.4999999999998" as="geometry" />
        </mxCell>
        <mxCell id="qOPyBxMy7SwVEEUV9Sr_-41" value="&lt;font style=&quot;font-size: 23px;&quot;&gt;Да&lt;/font&gt;" style="edgeLabel;html=1;align=center;verticalAlign=middle;resizable=0;points=[];" vertex="1" connectable="0" parent="1">
          <mxGeometry x="4153.001428571429" y="-130.99999999999977" as="geometry" />
        </mxCell>
        <mxCell id="qOPyBxMy7SwVEEUV9Sr_-42" value="&lt;p style=&quot;line-height: 110%;&quot;&gt;&lt;span style=&quot;font-size: 18px;&quot;&gt;quick&lt;/span&gt;&lt;/p&gt;&lt;p style=&quot;line-height: 110%;&quot;&gt;&lt;span style=&quot;font-size: 18px;&quot;&gt;sort&lt;/span&gt;&lt;/p&gt;" style="ellipse;whiteSpace=wrap;html=1;" vertex="1" parent="1">
          <mxGeometry x="4708" y="-482" width="110" height="60" as="geometry" />
        </mxCell>
        <mxCell id="qOPyBxMy7SwVEEUV9Sr_-43" value="" style="edgeStyle=orthogonalEdgeStyle;rounded=0;orthogonalLoop=1;jettySize=auto;html=1;" edge="1" parent="1">
          <mxGeometry relative="1" as="geometry">
            <mxPoint x="4764.18" y="-382" as="targetPoint" />
            <mxPoint x="4764" y="-422" as="sourcePoint" />
          </mxGeometry>
        </mxCell>
        <mxCell id="qOPyBxMy7SwVEEUV9Sr_-44" style="edgeStyle=orthogonalEdgeStyle;rounded=0;orthogonalLoop=1;jettySize=auto;html=1;exitX=0.5;exitY=1;exitDx=0;exitDy=0;entryX=0.5;entryY=0;entryDx=0;entryDy=0;" edge="1" parent="1" source="qOPyBxMy7SwVEEUV9Sr_-45">
          <mxGeometry relative="1" as="geometry">
            <mxPoint x="4763" y="-280" as="targetPoint" />
          </mxGeometry>
        </mxCell>
        <mxCell id="qOPyBxMy7SwVEEUV9Sr_-45" value="&lt;span style=&quot;font-size: 25px;&quot;&gt;Ввод &lt;br&gt;arr, n, f, d&lt;br&gt;&lt;/span&gt;" style="shape=parallelogram;perimeter=parallelogramPerimeter;whiteSpace=wrap;html=1;fixedSize=1;" vertex="1" parent="1">
          <mxGeometry x="4688" y="-381" width="150" height="60" as="geometry" />
        </mxCell>
        <mxCell id="qOPyBxMy7SwVEEUV9Sr_-46" style="edgeStyle=orthogonalEdgeStyle;rounded=0;orthogonalLoop=1;jettySize=auto;html=1;exitX=0.5;exitY=1;exitDx=0;exitDy=0;" edge="1" parent="1" source="qOPyBxMy7SwVEEUV9Sr_-47">
          <mxGeometry relative="1" as="geometry">
            <mxPoint x="4762.5" y="-180" as="targetPoint" />
          </mxGeometry>
        </mxCell>
        <mxCell id="qOPyBxMy7SwVEEUV9Sr_-47" value="&lt;span style=&quot;font-size: 23px;&quot;&gt;L = 1, R = n&lt;/span&gt;" style="rounded=0;whiteSpace=wrap;html=1;fontSize=20;" vertex="1" parent="1">
          <mxGeometry x="4651" y="-280.00000000000006" width="224" height="51" as="geometry" />
        </mxCell>
        <mxCell id="qOPyBxMy7SwVEEUV9Sr_-48" style="edgeStyle=orthogonalEdgeStyle;rounded=0;orthogonalLoop=1;jettySize=auto;html=1;exitX=0.5;exitY=1;exitDx=0;exitDy=0;entryX=0.5;entryY=0;entryDx=0;entryDy=0;" edge="1" parent="1" source="qOPyBxMy7SwVEEUV9Sr_-52" target="qOPyBxMy7SwVEEUV9Sr_-51">
          <mxGeometry relative="1" as="geometry">
            <mxPoint x="4763" y="-71" as="sourcePoint" />
          </mxGeometry>
        </mxCell>
        <mxCell id="qOPyBxMy7SwVEEUV9Sr_-49" style="edgeStyle=orthogonalEdgeStyle;rounded=0;orthogonalLoop=1;jettySize=auto;html=1;exitX=0.5;exitY=1;exitDx=0;exitDy=0;entryX=0.5;entryY=0;entryDx=0;entryDy=0;" edge="1" parent="1" source="qOPyBxMy7SwVEEUV9Sr_-50" target="qOPyBxMy7SwVEEUV9Sr_-52">
          <mxGeometry relative="1" as="geometry" />
        </mxCell>
        <mxCell id="qOPyBxMy7SwVEEUV9Sr_-50" value="&lt;span style=&quot;font-size: 23px;&quot;&gt;quick(arr, L, R)&lt;/span&gt;" style="rounded=0;whiteSpace=wrap;html=1;fontSize=20;" vertex="1" parent="1">
          <mxGeometry x="4651" y="-181.00000000000006" width="224" height="51" as="geometry" />
        </mxCell>
        <mxCell id="qOPyBxMy7SwVEEUV9Sr_-51" value="&lt;p style=&quot;line-height: 110%;&quot;&gt;&lt;span style=&quot;font-size: 18px;&quot;&gt;Конец&lt;/span&gt;&lt;/p&gt;" style="ellipse;whiteSpace=wrap;html=1;" vertex="1" parent="1">
          <mxGeometry x="4708" y="30" width="110" height="60" as="geometry" />
        </mxCell>
        <mxCell id="qOPyBxMy7SwVEEUV9Sr_-52" value="&lt;span style=&quot;font-size: 25px;&quot;&gt;Вывод&lt;br&gt;arr&lt;br&gt;&lt;/span&gt;" style="shape=parallelogram;perimeter=parallelogramPerimeter;whiteSpace=wrap;html=1;fixedSize=1;" vertex="1" parent="1">
          <mxGeometry x="4688" y="-83.5" width="150" height="60" as="geometry" />
        </mxCell>
        <mxCell id="qOPyBxMy7SwVEEUV9Sr_-53" style="edgeStyle=orthogonalEdgeStyle;rounded=0;orthogonalLoop=1;jettySize=auto;html=1;exitX=0.5;exitY=1;exitDx=0;exitDy=0;entryX=0.5;entryY=0;entryDx=0;entryDy=0;" edge="1" parent="1" source="qOPyBxMy7SwVEEUV9Sr_-55" target="qOPyBxMy7SwVEEUV9Sr_-54">
          <mxGeometry relative="1" as="geometry">
            <mxPoint x="4198" y="89.5" as="sourcePoint" />
          </mxGeometry>
        </mxCell>
        <mxCell id="qOPyBxMy7SwVEEUV9Sr_-54" value="&lt;p style=&quot;line-height: 110%;&quot;&gt;&lt;span style=&quot;font-size: 18px;&quot;&gt;Конец&lt;/span&gt;&lt;/p&gt;" style="ellipse;whiteSpace=wrap;html=1;" vertex="1" parent="1">
          <mxGeometry x="4143" y="190.5" width="110" height="60" as="geometry" />
        </mxCell>
        <mxCell id="qOPyBxMy7SwVEEUV9Sr_-55" value="&lt;span style=&quot;font-size: 25px;&quot;&gt;Вывод&lt;br&gt;arr&lt;br&gt;&lt;/span&gt;" style="shape=parallelogram;perimeter=parallelogramPerimeter;whiteSpace=wrap;html=1;fixedSize=1;" vertex="1" parent="1">
          <mxGeometry x="4123" y="77" width="150" height="60" as="geometry" />
        </mxCell>
        <mxCell id="qOPyBxMy7SwVEEUV9Sr_-56" style="edgeStyle=orthogonalEdgeStyle;rounded=0;orthogonalLoop=1;jettySize=auto;html=1;exitX=0.5;exitY=1;exitDx=0;exitDy=0;" edge="1" parent="1" source="qOPyBxMy7SwVEEUV9Sr_-57">
          <mxGeometry relative="1" as="geometry">
            <mxPoint x="3407" y="852" as="targetPoint" />
            <mxPoint x="3605.9999999999995" y="832" as="sourcePoint" />
            <Array as="points">
              <mxPoint x="3609" y="852" />
            </Array>
          </mxGeometry>
        </mxCell>
        <mxCell id="qOPyBxMy7SwVEEUV9Sr_-57" value="&lt;span style=&quot;font-size: 23px;&quot;&gt;swap(arr[i], arr[j])&lt;/span&gt;" style="rounded=0;whiteSpace=wrap;html=1;fontSize=20;" vertex="1" parent="1">
          <mxGeometry x="3498" y="769" width="224" height="51" as="geometry" />
        </mxCell>
        <mxCell id="qOPyBxMy7SwVEEUV9Sr_-58" style="edgeStyle=orthogonalEdgeStyle;rounded=0;orthogonalLoop=1;jettySize=auto;html=1;exitX=0.5;exitY=1;exitDx=0;exitDy=0;entryX=0.5;entryY=0;entryDx=0;entryDy=0;" edge="1" parent="1" source="qOPyBxMy7SwVEEUV9Sr_-59" target="qOPyBxMy7SwVEEUV9Sr_-11">
          <mxGeometry relative="1" as="geometry" />
        </mxCell>
        <mxCell id="qOPyBxMy7SwVEEUV9Sr_-59" value="cmp = compateAbonent(x, arr[i], f)" style="rounded=0;whiteSpace=wrap;html=1;fontSize=20;" vertex="1" parent="1">
          <mxGeometry x="3219.49" y="14.45" width="371" height="51" as="geometry" />
        </mxCell>
        <mxCell id="qOPyBxMy7SwVEEUV9Sr_-60" style="edgeStyle=orthogonalEdgeStyle;rounded=0;orthogonalLoop=1;jettySize=auto;html=1;exitX=0.5;exitY=1;exitDx=0;exitDy=0;entryX=0.5;entryY=0;entryDx=0;entryDy=0;" edge="1" parent="1" source="qOPyBxMy7SwVEEUV9Sr_-61" target="qOPyBxMy7SwVEEUV9Sr_-17">
          <mxGeometry relative="1" as="geometry" />
        </mxCell>
        <mxCell id="qOPyBxMy7SwVEEUV9Sr_-61" value="cmp = compateAbonent(arr[j], x, f)" style="rounded=0;whiteSpace=wrap;html=1;fontSize=20;" vertex="1" parent="1">
          <mxGeometry x="3219.49" y="355.45000000000005" width="371" height="51" as="geometry" />
        </mxCell>
      </root>
    </mxGraphModel>
  </diagram>
</mxfile>
